<svg id="レイヤー_1" data-name="レイヤー 1" xmlns="http://www.w3.org/2000/svg" viewBox="0 0 256 256"><defs><style>.cls-1{fill:#16b5a5;}.cls-2{fill:#fff;}</style></defs><title>loglog_icon</title><circle class="cls-1" cx="128" cy="128" r="128"/><path class="cls-2" d="M216.29,183.73a5.67,5.67,0,0,1,5.89,5.89v5.88a5.65,5.65,0,0,1-5.89,5.89H45.59a11.92,11.92,0,0,1-11.77-11.77V66a5.65,5.65,0,0,1,5.88-5.88h5.89A5.67,5.67,0,0,1,51.48,66V183.73ZM73.92,166.07a5,5,0,0,1-4.78-4.78V135.54a5.06,5.06,0,0,1,4.78-4.79H82a5.08,5.08,0,0,1,4.79,4.79v25.75A5.06,5.06,0,0,1,82,166.07Zm35.32,0a5.06,5.06,0,0,1-4.79-4.78V88.45a5.08,5.08,0,0,1,4.79-4.79h8.09a5.06,5.06,0,0,1,4.78,4.79v72.84a5,5,0,0,1-4.78,4.78Zm35.31,0a5,5,0,0,1-4.78-4.78V112a5,5,0,0,1,4.78-4.78h8.1a5,5,0,0,1,4.78,4.78v49.3a5,5,0,0,1-4.78,4.78Zm35.32,0a5,5,0,0,1-4.78-4.78V76.67a5,5,0,0,1,4.78-4.78H188a5,5,0,0,1,4.78,4.78v84.62a5,5,0,0,1-4.78,4.78Z"/></svg>